<svg width="512" height="512" viewBox="0 0 512 512" fill="none" xmlns="http://www.w3.org/2000/svg">
<rect width="512" height="512" fill="white"/>
<path d="M133.376 227.965C135.206 226.135 136.285 223.649 136.332 220.88L136.332 200.985L86.5467 200.938L86.4528 220.739C86.4998 226.417 90.9574 230.875 96.4944 230.781L126.337 230.875C129.106 230.828 131.593 229.749 133.376 227.965ZM136.332 193.06L136.285 116.997L122.959 127.696L111.369 117.795L99.8728 127.696L86.4998 117.044L86.5467 193.106L136.332 193.06ZM134.69 108.603L111.51 68.9999L88.4705 108.838L99.732 117.847L111.369 107.805L123.1 117.847" stroke="#FAC422" stroke-width="4"/>
<path d="M192.507 223.562C192.507 220.297 192.507 217.129 190.971 215.497C189.579 213.816 186.362 213.864 183.338 213.912C178.633 213.816 174.217 213.912 171.96 211.464C169.704 209.016 169.704 204.119 169.752 199.27L169.704 159.569L183.338 159.569L183.29 200.326L192.507 200.326L192.555 186.74L228.56 186.74L228.512 223.562C228.512 227.306 225.392 230.427 221.743 230.331L199.276 230.331C195.628 230.427 192.507 227.306 192.507 223.562ZM228.512 87.0025L228.56 178.839L192.555 178.839L192.507 87.0025L210.51 69L228.512 87.0025Z" stroke="#FF026E" stroke-width="4"/>
<line x1="64" y1="257" x2="448" y2="257" stroke="black" stroke-width="6"/>
<path d="M133.57 348V296.812H149.32C153.82 296.812 157.84 297.832 161.379 299.871C164.941 301.887 167.719 304.77 169.711 308.52C171.703 312.246 172.699 316.488 172.699 321.246V323.602C172.699 328.359 171.715 332.59 169.746 336.293C167.801 339.996 165.047 342.867 161.484 344.906C157.922 346.945 153.902 347.977 149.426 348H133.57ZM144.117 305.355V339.527H149.215C153.34 339.527 156.492 338.18 158.672 335.484C160.852 332.789 161.965 328.934 162.012 323.918V321.211C162.012 316.008 160.934 312.07 158.777 309.398C156.621 306.703 153.469 305.355 149.32 305.355H144.117ZM211.195 325.816H190.945V339.527H214.711V348H180.398V296.812H214.641V305.355H190.945V317.555H211.195V325.816ZM247.441 334.57C247.441 332.578 246.738 331.055 245.332 330C243.926 328.922 241.395 327.797 237.738 326.625C234.082 325.43 231.188 324.258 229.055 323.109C223.242 319.969 220.336 315.738 220.336 310.418C220.336 307.652 221.109 305.191 222.656 303.035C224.227 300.855 226.465 299.156 229.371 297.938C232.301 296.719 235.582 296.109 239.215 296.109C242.871 296.109 246.129 296.777 248.988 298.113C251.848 299.426 254.062 301.289 255.633 303.703C257.227 306.117 258.023 308.859 258.023 311.93H247.477C247.477 309.586 246.738 307.77 245.262 306.48C243.785 305.168 241.711 304.512 239.039 304.512C236.461 304.512 234.457 305.062 233.027 306.164C231.598 307.242 230.883 308.672 230.883 310.453C230.883 312.117 231.715 313.512 233.379 314.637C235.066 315.762 237.539 316.816 240.797 317.801C246.797 319.605 251.168 321.844 253.91 324.516C256.652 327.188 258.023 330.516 258.023 334.5C258.023 338.93 256.348 342.41 252.996 344.941C249.645 347.449 245.133 348.703 239.461 348.703C235.523 348.703 231.938 347.988 228.703 346.559C225.469 345.105 222.996 343.125 221.285 340.617C219.598 338.109 218.754 335.203 218.754 331.898H229.336C229.336 337.547 232.711 340.371 239.461 340.371C241.969 340.371 243.926 339.867 245.332 338.859C246.738 337.828 247.441 336.398 247.441 334.57ZM276.41 348H265.863V296.812H276.41V348ZM326.719 341.531C324.82 343.805 322.137 345.574 318.668 346.84C315.199 348.082 311.355 348.703 307.137 348.703C302.707 348.703 298.816 347.742 295.465 345.82C292.137 343.875 289.559 341.062 287.73 337.383C285.926 333.703 285 329.379 284.953 324.41V320.93C284.953 315.82 285.809 311.402 287.52 307.676C289.254 303.926 291.738 301.066 294.973 299.098C298.23 297.105 302.039 296.109 306.398 296.109C312.469 296.109 317.215 297.562 320.637 300.469C324.059 303.352 326.086 307.559 326.719 313.09H316.453C315.984 310.16 314.941 308.016 313.324 306.656C311.73 305.297 309.527 304.617 306.715 304.617C303.129 304.617 300.398 305.965 298.523 308.66C296.648 311.355 295.699 315.363 295.676 320.684V323.953C295.676 329.32 296.695 333.375 298.734 336.117C300.773 338.859 303.762 340.23 307.699 340.23C311.66 340.23 314.484 339.387 316.172 337.699V328.875H306.574V321.105H326.719V341.531ZM376.922 348H366.375L345.844 314.32V348H335.297V296.812H345.844L366.41 330.562V296.812H376.922V348Z" fill="black"/>
<path d="M220.654 383.184H212.428V406H209.07V383.184H200.861V380.406H220.654V383.184ZM243.646 394.029C243.646 396.537 243.225 398.729 242.381 400.604C241.537 402.467 240.342 403.891 238.795 404.875C237.248 405.859 235.443 406.352 233.381 406.352C231.365 406.352 229.578 405.859 228.02 404.875C226.461 403.879 225.248 402.467 224.381 400.639C223.525 398.799 223.086 396.672 223.062 394.258V392.412C223.062 389.951 223.49 387.777 224.346 385.891C225.201 384.004 226.408 382.562 227.967 381.566C229.537 380.559 231.33 380.055 233.346 380.055C235.396 380.055 237.201 380.553 238.76 381.549C240.33 382.533 241.537 383.969 242.381 385.855C243.225 387.73 243.646 389.916 243.646 392.412V394.029ZM240.289 392.377C240.289 389.342 239.68 387.016 238.461 385.398C237.242 383.77 235.537 382.955 233.346 382.955C231.213 382.955 229.531 383.77 228.301 385.398C227.082 387.016 226.455 389.266 226.42 392.148V394.029C226.42 396.971 227.035 399.285 228.266 400.973C229.508 402.648 231.213 403.486 233.381 403.486C235.561 403.486 237.248 402.695 238.443 401.113C239.639 399.52 240.254 397.24 240.289 394.275V392.377ZM268.396 394.029C268.396 396.537 267.975 398.729 267.131 400.604C266.287 402.467 265.092 403.891 263.545 404.875C261.998 405.859 260.193 406.352 258.131 406.352C256.115 406.352 254.328 405.859 252.77 404.875C251.211 403.879 249.998 402.467 249.131 400.639C248.275 398.799 247.836 396.672 247.812 394.258V392.412C247.812 389.951 248.24 387.777 249.096 385.891C249.951 384.004 251.158 382.562 252.717 381.566C254.287 380.559 256.08 380.055 258.096 380.055C260.146 380.055 261.951 380.553 263.51 381.549C265.08 382.533 266.287 383.969 267.131 385.855C267.975 387.73 268.396 389.916 268.396 392.412V394.029ZM265.039 392.377C265.039 389.342 264.43 387.016 263.211 385.398C261.992 383.77 260.287 382.955 258.096 382.955C255.963 382.955 254.281 383.77 253.051 385.398C251.832 387.016 251.205 389.266 251.17 392.148V394.029C251.17 396.971 251.785 399.285 253.016 400.973C254.258 402.648 255.963 403.486 258.131 403.486C260.311 403.486 261.998 402.695 263.193 401.113C264.389 399.52 265.004 397.24 265.039 394.275V392.377ZM276.852 403.24H288.98V406H273.459V380.406H276.852V403.24ZM300.371 394.592C297.477 393.76 295.367 392.74 294.043 391.533C292.73 390.314 292.074 388.814 292.074 387.033C292.074 385.018 292.877 383.354 294.482 382.041C296.1 380.717 298.197 380.055 300.775 380.055C302.533 380.055 304.098 380.395 305.469 381.074C306.852 381.754 307.918 382.691 308.668 383.887C309.43 385.082 309.811 386.389 309.811 387.807H306.418C306.418 386.26 305.926 385.047 304.941 384.168C303.957 383.277 302.568 382.832 300.775 382.832C299.111 382.832 297.811 383.201 296.873 383.939C295.947 384.666 295.484 385.68 295.484 386.98C295.484 388.023 295.924 388.908 296.803 389.635C297.693 390.35 299.199 391.006 301.32 391.604C303.453 392.201 305.117 392.863 306.312 393.59C307.52 394.305 308.41 395.143 308.984 396.104C309.57 397.064 309.863 398.195 309.863 399.496C309.863 401.57 309.055 403.234 307.438 404.488C305.82 405.73 303.658 406.352 300.951 406.352C299.193 406.352 297.553 406.018 296.029 405.35C294.506 404.67 293.328 403.744 292.496 402.572C291.676 401.4 291.266 400.07 291.266 398.582H294.658C294.658 400.129 295.227 401.354 296.363 402.256C297.512 403.146 299.041 403.592 300.951 403.592C302.732 403.592 304.098 403.229 305.047 402.502C305.996 401.775 306.471 400.785 306.471 399.531C306.471 398.277 306.031 397.311 305.152 396.631C304.273 395.939 302.68 395.26 300.371 394.592Z" fill="black"/>
<path d="M316.036 119.156C323.942 111.25 323.942 98.4848 316.036 90.5782C309.796 84.3386 312.035 75.527 316.036 71.526C305.843 70.0971 294.65 73.8599 287.458 81.0521C276.931 91.5784 276.931 108.63 287.458 119.156C295.364 127.063 308.129 127.063 316.036 119.156ZM295.364 229.087L308.129 229.087C311.844 229.087 314.845 226.087 314.845 222.372L314.845 137.018H288.648L288.648 222.372C288.648 226.087 291.649 229.087 295.364 229.087V229.087Z" stroke="#388AFF" stroke-width="4"/>
<path d="M410.059 118.146L415.456 160.742L410.059 223.834C410.059 227.348 407.131 230.276 403.708 230.186L397.311 230.186C393.888 230.276 390.96 227.348 390.96 223.834L385.563 160.742L390.96 118.146L410.059 118.146ZM390.96 111.749H410.059L416.456 92.6496L403.708 67.1983L403.708 86.298C403.573 87.9647 402.176 89.3611 400.51 89.4963C398.843 89.3611 397.446 87.9647 397.311 86.298L397.311 67.1983L384.563 92.6495L390.96 111.749Z" stroke="#0BD39E" stroke-width="4"/>
</svg>
